<?xml version="1.0" standalone="no"?>
<!DOCTYPE svg PUBLIC "-//W3C//DTD SVG 20010904//EN"
 "http://www.w3.org/TR/2001/REC-SVG-20010904/DTD/svg10.dtd">
<svg version="1.0" xmlns="http://www.w3.org/2000/svg"
 width="512.000000pt" height="512.000000pt" viewBox="0 0 512.000000 512.000000"
 preserveAspectRatio="xMidYMid meet">

<g transform="translate(0.000000,512.000000) scale(0.100000,-0.100000)"
fill="#000000" stroke="none">
<path d="M3663 5106 c-154 -50 -244 -172 -243 -329 1 -64 8 -96 35 -159 7 -17
-2 -18 -108 -18 l-115 0 5 63 c7 84 -9 135 -59 192 -54 61 -105 84 -186 85
-105 0 -178 -42 -227 -131 -24 -44 -29 -66 -29 -120 0 -55 5 -74 32 -123 l33
-57 -42 -47 c-37 -42 -67 -95 -98 -174 l-11 -28 -187 0 c-261 -1 -254 7 -223
-248 12 -97 26 -190 32 -205 20 -52 91 -67 133 -27 29 28 31 62 11 213 l-12
97 123 0 123 0 0 -255 0 -255 -145 0 c-142 0 -147 -1 -170 -25 -15 -15 -25
-36 -25 -54 0 -78 29 -91 208 -91 l138 0 17 -53 c42 -133 159 -237 312 -277
66 -17 966 -13 1040 4 160 38 286 170 316 331 7 33 13 66 15 73 2 9 34 12 113
12 l109 0 217 -130 c120 -72 229 -130 242 -130 14 0 37 13 54 29 l29 29 0 542
0 541 -25 24 c-45 45 -71 37 -298 -100 l-208 -125 -120 0 -119 0 0 28 c0 46
-26 128 -59 186 -41 70 -109 131 -189 168 -61 28 -62 29 -48 51 9 12 23 51 32
86 52 204 -101 406 -315 417 -39 2 -83 -2 -108 -10z m185 -192 c90 -59 102
-183 26 -260 -103 -103 -284 -26 -284 121 0 134 146 212 258 139z m-801 -166
c51 -48 15 -138 -54 -138 -46 0 -69 14 -82 50 -12 35 -1 75 27 96 27 21 83 17
109 -8z m983 -339 c60 -27 98 -64 126 -124 24 -50 24 -51 24 -441 0 -438 -2
-453 -69 -522 -78 -80 -54 -77 -611 -77 -557 0 -533 -3 -611 77 -67 69 -69 84
-69 522 0 372 1 393 21 436 27 60 64 98 124 126 l50 24 485 0 c466 0 487 -1
530 -21z m920 -574 c0 -195 -2 -355 -4 -355 -3 0 -62 34 -131 76 l-125 76 2
206 3 207 120 73 c66 39 123 72 127 72 5 0 8 -160 8 -355z m-430 5 l0 -170
-85 0 -85 0 0 170 0 170 85 0 85 0 0 -170z"/>
<path d="M3185 4235 c-32 -31 -32 -75 -1 -112 l24 -28 297 -5 296 -5 19 -25
c17 -21 20 -42 20 -137 0 -104 -2 -114 -24 -140 l-24 -28 -290 -3 -290 -3 -26
-26 c-33 -33 -34 -73 -2 -110 l24 -28 309 0 c296 0 310 1 348 21 56 30 94 71
121 129 21 44 24 65 24 180 0 72 -5 147 -10 167 -16 57 -69 119 -129 150 l-53
28 -305 0 -304 0 -24 -25z"/>
<path d="M1435 3896 c-98 -46 -143 -118 -152 -242 l-6 -73 -471 -3 c-468 -3
-471 -3 -529 -27 -111 -44 -200 -137 -249 -259 -23 -56 -23 -62 -23 -472 0
-378 2 -420 18 -468 44 -125 119 -210 235 -265 l67 -32 769 -3 c759 -2 770 -2
833 19 119 39 222 139 271 261 24 62 31 821 8 919 -39 167 -165 287 -341 322
l-70 14 -6 79 c-6 87 -28 141 -76 186 -72 69 -187 87 -278 44z m160 -171 c21
-20 25 -34 25 -85 l0 -60 -86 0 -87 0 6 62 c5 51 10 67 32 85 35 30 79 30 110
-2z m300 -339 c63 -29 102 -68 131 -131 24 -50 24 -52 24 -436 0 -424 -1 -435
-60 -509 -17 -21 -54 -50 -82 -64 l-52 -26 -740 0 -741 0 -50 24 c-28 12 -65
40 -84 61 -67 77 -66 68 -66 505 l0 395 24 53 c13 29 42 68 64 87 76 66 47 63
852 64 l730 1 50 -24z"/>
<path d="M1009 3225 c-186 -45 -319 -217 -319 -409 0 -193 116 -350 298 -406
246 -76 500 81 542 336 16 96 -2 137 -66 150 -48 9 -90 -32 -97 -96 -12 -103
-62 -174 -152 -216 -167 -79 -355 44 -355 231 1 133 94 236 231 252 69 8 103
37 103 88 0 29 -7 43 -28 61 -31 28 -71 30 -157 9z"/>
<path d="M394 2546 c-35 -15 -44 -32 -44 -81 0 -64 79 -97 132 -55 50 39 37
118 -22 139 -18 6 -33 11 -34 11 -1 -1 -15 -7 -32 -14z"/>
<path d="M2440 2887 c-54 -27 -61 -99 -13 -137 25 -19 42 -20 565 -20 l539 0
24 25 c41 40 33 105 -16 130 -39 21 -1059 22 -1099 2z"/>
<path d="M3815 2640 l-420 -169 -306 -1 c-304 0 -306 0 -326 -22 -29 -32 -34
-53 -21 -88 19 -56 40 -60 328 -60 l260 0 0 -255 0 -255 -255 0 -255 0 0 90
c0 105 -15 146 -58 157 -38 10 -63 4 -89 -20 -22 -19 -23 -29 -23 -146 0 -150
15 -189 89 -228 43 -23 49 -23 353 -23 l308 0 425 -170 c234 -94 437 -170 451
-170 13 0 36 11 49 25 l25 24 0 716 0 716 -25 24 c-16 17 -35 25 -57 25 -19
-1 -217 -75 -453 -170z m365 -594 l0 -554 -340 136 -340 136 2 284 3 284 330
133 c182 73 333 134 338 134 4 1 7 -248 7 -553z"/>
<path d="M4690 2713 c-88 -60 -150 -108 -157 -124 -29 -60 35 -132 97 -111 15
6 89 51 164 102 141 93 163 119 151 167 -9 37 -41 63 -78 63 -25 0 -67 -23
-177 -97z"/>
<path d="M4664 2210 c-55 -23 -70 -95 -29 -135 24 -25 25 -25 224 -25 110 0
207 3 216 6 19 8 45 55 45 83 0 11 -11 33 -24 48 l-24 28 -194 2 c-106 1 -203
-2 -214 -7z"/>
<path d="M1263 1872 c-13 -2 -32 -15 -43 -29 -20 -25 -20 -38 -20 -747 0 -782
0 -780 55 -879 58 -102 169 -182 290 -207 34 -7 374 -10 1050 -8 l1000 3 55
22 c114 47 203 140 252 262 22 54 22 70 26 471 2 287 0 427 -8 452 -18 63 -82
83 -135 44 -19 -14 -20 -29 -25 -448 -5 -430 -5 -433 -29 -486 -13 -29 -42
-68 -64 -87 -80 -69 -26 -66 -1123 -63 l-989 3 -41 22 c-50 27 -97 75 -121
122 -17 33 -18 90 -23 766 -4 551 -8 735 -17 751 -14 25 -57 42 -90 36z"/>
<path d="M1663 1775 c-50 -35 -43 -124 12 -145 16 -6 172 -10 385 -10 l359 0
26 23 c38 32 38 92 0 124 l-26 23 -367 0 c-309 0 -371 -2 -389 -15z"/>
<path d="M4552 1678 c-33 -36 -37 -70 -11 -102 36 -46 285 -206 320 -206 61 0
96 43 84 102 -6 24 -34 47 -156 128 -163 110 -196 120 -237 78z"/>
<path d="M2080 1340 c-45 -45 -33 -112 25 -135 51 -22 1289 -22 1340 -1 59 25
71 90 25 136 -20 20 -36 20 -695 20 -659 0 -675 0 -695 -20z"/>
<path d="M1673 925 c-53 -23 -62 -92 -17 -132 25 -23 25 -23 398 -23 l373 0
20 23 c29 31 34 52 21 87 -20 58 -32 60 -415 60 -275 -1 -355 -4 -380 -15z"/>
<path d="M2779 925 c-29 -16 -52 -66 -42 -93 3 -9 15 -27 26 -39 20 -23 21
-23 352 -23 319 0 332 1 353 20 46 43 37 109 -18 137 -39 20 -635 17 -671 -2z"/>
<path d="M1673 585 c-51 -22 -61 -89 -20 -132 20 -23 23 -23 312 -23 289 0
292 0 312 23 42 44 31 111 -22 133 -49 20 -535 20 -582 -1z"/>
<path d="M2614 586 c-40 -18 -59 -62 -44 -101 21 -54 22 -54 331 -55 275 0
287 1 313 21 36 28 36 86 0 120 l-26 24 -271 2 c-212 2 -279 0 -303 -11z"/>
</g>
</svg>
